<svg width="155" height="41" viewBox="0 0 155 41" fill="none" xmlns="http://www.w3.org/2000/svg">
<path d="M44.1646 40.9699H38.3789V0.390625H44.1646V40.9699Z" fill="black" style="fill:black;fill-opacity:1;"/>
<path d="M6.52009 40.9699H0.734375V32.2913H3.62723V23.5929H6.52009V14.8945H9.41294V6.19615H12.3256V0.390625H21.024V6.19615H23.9169V14.8945H26.8097V23.5929H29.7026V32.2913H32.6152V40.9699H26.8097V32.2913H6.52009V40.9699ZM9.41294 26.4858H23.9169V23.5929H21.024V14.8945H18.1113V9.08901H15.2185V14.8945H12.3256V23.5929H9.41294V26.4858Z" fill="black" style="fill:black;fill-opacity:1;"/>
<path d="M65.7184 8.55851V18.5312H64.08V11.4221L61.0455 16.437H60.846L57.8114 11.4079V18.5312H56.1731V8.55851H57.9397L60.9457 13.5449L63.966 8.55851H65.7184ZM70.0575 16.9641H74.474V18.5312H68.4192V8.55851H74.4028V10.1257H70.0575V12.7186H74.0466V14.2715H70.0575V16.9641ZM83.1685 8.55851V10.1257H80.3618V18.5312H78.7235V10.1257H75.9026V8.55851H83.1685ZM90.8793 18.5312L90.1812 16.5225H85.9357L85.2376 18.5312H83.4567L87.0754 8.55851H89.0415L92.6459 18.5312H90.8793ZM86.477 14.9838H89.6398L88.0584 10.4818L86.477 14.9838ZM98.3485 8.55851C99.7162 8.55851 100.851 9.03815 101.753 9.99744C102.665 10.9567 103.121 12.1392 103.121 13.5449C103.121 14.9411 102.665 16.1235 101.753 17.0923C100.851 18.0516 99.7162 18.5312 98.3485 18.5312H94.4306V8.55851H98.3485ZM98.3485 16.9641C99.2888 16.9641 100.053 16.6412 100.642 15.9953C101.241 15.3495 101.54 14.5327 101.54 13.5449C101.54 12.5476 101.241 11.7308 100.642 11.0944C100.053 10.4486 99.2888 10.1257 98.3485 10.1257H96.069V16.9641H98.3485ZM111.448 18.5312L110.75 16.5225H106.504L105.806 18.5312H104.025L107.644 8.55851H109.61L113.215 18.5312H111.448ZM107.046 14.9838H110.209L108.627 10.4818L107.046 14.9838ZM120.772 8.55851V10.1257H117.966V18.5312H116.327V10.1257H113.506V8.55851H120.772ZM128.483 18.5312L127.785 16.5225H123.539L122.841 18.5312H121.06L124.679 8.55851H126.645L130.25 18.5312H128.483ZM124.081 14.9838H127.244L125.662 10.4818L124.081 14.9838ZM62.6553 23.5585V25.1257H59.8487V33.5312H58.2103V25.1257H55.3895V23.5585H62.6553ZM70.2637 33.5312L68.1551 29.8983H66.2176V33.5312H64.5792V23.5585H68.5683C69.4611 23.5585 70.2162 23.8719 70.8335 24.4988C71.4604 25.1162 71.7738 25.8712 71.7738 26.764C71.7738 27.4004 71.5886 27.9845 71.2182 28.5164C70.8573 29.0388 70.3824 29.4187 69.7935 29.6561L72.0588 33.5312H70.2637ZM66.2176 25.0972V28.4309H68.5683C69.0052 28.4309 69.3756 28.2694 69.6795 27.9465C69.9835 27.6236 70.1354 27.2294 70.1354 26.764C70.1354 26.2986 69.9835 25.9045 69.6795 25.5816C69.3756 25.2586 69.0052 25.0972 68.5683 25.0972H66.2176ZM80.5253 33.5312L79.8273 31.5225H75.5817L74.8836 33.5312H73.1028L76.7215 23.5585H78.6875L82.2919 33.5312H80.5253ZM76.1231 29.9838H79.2859L77.7045 25.4818L76.1231 29.9838ZM90.0603 23.5585H91.6987V33.5312H90.4165L85.7151 26.764V33.5312H84.0767V23.5585H85.3589L90.0603 30.3257V23.5585ZM97.5832 33.7165C96.6239 33.7165 95.8071 33.498 95.1327 33.0611C94.4679 32.6242 94.0025 32.0258 93.7366 31.266L95.147 30.4397C95.5459 31.5604 96.3722 32.1208 97.6259 32.1208C98.2433 32.1208 98.7039 32.0021 99.0079 31.7647C99.3213 31.5177 99.478 31.1995 99.478 30.8101C99.478 30.4017 99.3118 30.093 98.9794 29.8841C98.6469 29.6656 98.0581 29.4282 97.2128 29.1717C96.7379 29.0293 96.3532 28.8963 96.0588 28.7728C95.7643 28.6494 95.4509 28.4784 95.1185 28.2599C94.7956 28.032 94.5534 27.7518 94.3919 27.4194C94.2304 27.087 94.1497 26.6975 94.1497 26.2512C94.1497 25.3679 94.4631 24.6698 95.09 24.1569C95.7169 23.6345 96.4719 23.3733 97.3552 23.3733C98.153 23.3733 98.8511 23.568 99.4495 23.9574C100.048 24.3468 100.509 24.8835 100.831 25.5673L99.4495 26.3651C99.0316 25.4343 98.3335 24.9689 97.3552 24.9689C96.8803 24.9689 96.5004 25.0829 96.2155 25.3109C95.9306 25.5293 95.7881 25.8285 95.7881 26.2084C95.7881 26.5788 95.9306 26.8733 96.2155 27.0917C96.5099 27.3007 97.0371 27.5239 97.7969 27.7613C98.1768 27.8848 98.4522 27.9798 98.6232 28.0462C98.8037 28.1032 99.0506 28.1982 99.364 28.3312C99.687 28.4641 99.9291 28.5971 100.091 28.7301C100.252 28.8631 100.423 29.0293 100.603 29.2287C100.793 29.4282 100.926 29.6561 101.002 29.9126C101.078 30.169 101.116 30.4587 101.116 30.7816C101.116 31.6839 100.789 32.401 100.133 32.9329C99.4875 33.4553 98.6374 33.7165 97.5832 33.7165ZM104.809 31.9641H108.869V33.5312H103.171V23.5585H104.809V31.9641ZM117.573 33.5312L116.874 31.5225H112.629L111.931 33.5312H110.15L113.769 23.5585H115.735L119.339 33.5312H117.573ZM113.17 29.9838H116.333L114.752 25.4818L113.17 29.9838ZM126.897 23.5585V25.1257H124.09V33.5312H122.452V25.1257H119.631V23.5585H126.897ZM128.82 23.5585H130.459V33.5312H128.82V23.5585ZM141.498 32.2205C140.501 33.2178 139.281 33.7165 137.837 33.7165C136.393 33.7165 135.168 33.2178 134.161 32.2205C133.164 31.2138 132.665 29.9886 132.665 28.5449C132.665 27.1012 133.164 25.8807 134.161 24.8835C135.168 23.8767 136.393 23.3733 137.837 23.3733C139.281 23.3733 140.501 23.8767 141.498 24.8835C142.505 25.8807 143.009 27.1012 143.009 28.5449C143.009 29.9886 142.505 31.2138 141.498 32.2205ZM135.315 31.1093C135.999 31.7836 136.84 32.1208 137.837 32.1208C138.834 32.1208 139.67 31.7836 140.344 31.1093C141.028 30.4255 141.37 29.5706 141.37 28.5449C141.37 27.5191 141.028 26.6691 140.344 25.9947C139.67 25.3109 138.834 24.9689 137.837 24.9689C136.84 24.9689 135.999 25.3109 135.315 25.9947C134.641 26.6691 134.304 27.5191 134.304 28.5449C134.304 29.5706 134.641 30.4255 135.315 31.1093ZM151.199 23.5585H152.837V33.5312H151.555L146.854 26.764V33.5312H145.215V23.5585H146.498L151.199 30.3257V23.5585Z" fill="black" style="fill:black;fill-opacity:1;"/>
</svg>
