<svg width="155" height="41" viewBox="0 0 155 41" fill="none" xmlns="http://www.w3.org/2000/svg">
<path d="M43.6021 40.8839H37.8164V0.304688H43.6021V40.8839Z" fill="white" style="fill:white;fill-opacity:1;"/>
<path d="M5.95759 40.8839H0.171875V32.2054H3.06473V23.507H5.95759V14.8086H8.85044V6.11021H11.7631V0.304688H20.4615V6.11021H23.3544V14.8086H26.2472V23.507H29.1401V32.2054H32.0527V40.8839H26.2472V32.2054H5.95759V40.8839ZM8.85044 26.3998H23.3544V23.507H20.4615V14.8086H17.5488V9.00307H14.656V14.8086H11.7631V23.507H8.85044V26.3998Z" fill="white" style="fill:white;fill-opacity:1;"/>
<path d="M65.1559 8.47257V18.4453H63.5175V11.3362L60.483 16.351H60.2835L57.2489 11.3219V18.4453H55.6106V8.47257H57.3772L60.3832 13.4589L63.4035 8.47257H65.1559ZM69.495 16.8782H73.9115V18.4453H67.8567V8.47257H73.8403V10.0397H69.495V12.6326H73.4841V14.1855H69.495V16.8782ZM82.606 8.47257V10.0397H79.7993V18.4453H78.161V10.0397H75.3401V8.47257H82.606ZM90.3168 18.4453L89.6187 16.4365H85.3732L84.6751 18.4453H82.8942L86.5129 8.47257H88.479L92.0834 18.4453H90.3168ZM85.9145 14.8979H89.0773L87.4959 10.3959L85.9145 14.8979ZM97.786 8.47257C99.1537 8.47257 100.289 8.95222 101.191 9.9115C102.103 10.8708 102.559 12.0533 102.559 13.4589C102.559 14.8551 102.103 16.0376 101.191 17.0064C100.289 17.9657 99.1537 18.4453 97.786 18.4453H93.8681V8.47257H97.786ZM97.786 16.8782C98.7263 16.8782 99.4909 16.5552 100.08 15.9094C100.678 15.2635 100.977 14.4467 100.977 13.4589C100.977 12.4617 100.678 11.6449 100.08 11.0085C99.4909 10.3626 98.7263 10.0397 97.786 10.0397H95.5065V16.8782H97.786ZM110.886 18.4453L110.187 16.4365H105.942L105.244 18.4453H103.463L107.082 8.47257H109.048L112.652 18.4453H110.886ZM106.483 14.8979H109.646L108.065 10.3959L106.483 14.8979ZM120.21 8.47257V10.0397H117.403V18.4453H115.765V10.0397H112.944V8.47257H120.21ZM127.92 18.4453L127.222 16.4365H122.977L122.279 18.4453H120.498L124.117 8.47257H126.083L129.687 18.4453H127.92ZM123.518 14.8979H126.681L125.1 10.3959L123.518 14.8979ZM62.0928 23.4726V25.0397H59.2862V33.4453H57.6478V25.0397H54.827V23.4726H62.0928ZM69.7012 33.4453L67.5926 29.8124H65.6551V33.4453H64.0167V23.4726H68.0058C68.8986 23.4726 69.6537 23.786 70.271 24.4129C70.8979 25.0302 71.2113 25.7853 71.2113 26.6781C71.2113 27.3145 71.0261 27.8986 70.6557 28.4304C70.2948 28.9528 69.8199 29.3327 69.231 29.5702L71.4963 33.4453H69.7012ZM65.6551 25.0112V28.345H68.0058C68.4427 28.345 68.8131 28.1835 69.117 27.8606C69.421 27.5377 69.5729 27.1435 69.5729 26.6781C69.5729 26.2127 69.421 25.8185 69.117 25.4956C68.8131 25.1727 68.4427 25.0112 68.0058 25.0112H65.6551ZM79.9628 33.4453L79.2648 31.4365H75.0192L74.3211 33.4453H72.5403L76.159 23.4726H78.125L81.7294 33.4453H79.9628ZM75.5606 29.8979H78.7234L77.142 25.3959L75.5606 29.8979ZM89.4978 23.4726H91.1362V33.4453H89.854L85.1526 26.6781V33.4453H83.5142V23.4726H84.7964L89.4978 30.2398V23.4726ZM97.0207 33.6305C96.0614 33.6305 95.2446 33.4121 94.5702 32.9752C93.9054 32.5383 93.44 31.9399 93.1741 31.1801L94.5845 30.3538C94.9834 31.4745 95.8097 32.0349 97.0634 32.0349C97.6808 32.0349 98.1414 31.9162 98.4454 31.6787C98.7588 31.4318 98.9155 31.1136 98.9155 30.7242C98.9155 30.3158 98.7493 30.0071 98.4169 29.7981C98.0844 29.5797 97.4956 29.3422 96.6503 29.0858C96.1754 28.9433 95.7907 28.8104 95.4963 28.6869C95.2018 28.5634 94.8884 28.3925 94.556 28.174C94.2331 27.9461 93.9909 27.6659 93.8294 27.3334C93.6679 27.001 93.5872 26.6116 93.5872 26.1652C93.5872 25.2819 93.9006 24.5838 94.5275 24.0709C95.1544 23.5486 95.9094 23.2874 96.7927 23.2874C97.5905 23.2874 98.2886 23.4821 98.887 23.8715C99.4854 24.2609 99.946 24.7975 100.269 25.4814L98.887 26.2792C98.4691 25.3484 97.771 24.883 96.7927 24.883C96.3178 24.883 95.9379 24.997 95.653 25.2249C95.3681 25.4434 95.2256 25.7426 95.2256 26.1225C95.2256 26.4929 95.3681 26.7873 95.653 27.0058C95.9474 27.2147 96.4746 27.4379 97.2344 27.6754C97.6143 27.7988 97.8897 27.8938 98.0607 27.9603C98.2412 28.0173 98.4881 28.1123 98.8015 28.2452C99.1245 28.3782 99.3666 28.5112 99.5281 28.6442C99.6896 28.7771 99.8605 28.9433 100.041 29.1428C100.231 29.3422 100.364 29.5702 100.44 29.8266C100.516 30.0831 100.554 30.3728 100.554 30.6957C100.554 31.598 100.226 32.3151 99.5708 32.8469C98.925 33.3693 98.0749 33.6305 97.0207 33.6305ZM104.247 31.8782H108.307V33.4453H102.608V23.4726H104.247V31.8782ZM117.01 33.4453L116.312 31.4365H112.066L111.368 33.4453H109.587L113.206 23.4726H115.172L118.777 33.4453H117.01ZM112.608 29.8979H115.771L114.189 25.3959L112.608 29.8979ZM126.334 23.4726V25.0397H123.527V33.4453H121.889V25.0397H119.068V23.4726H126.334ZM128.258 23.4726H129.896V33.4453H128.258V23.4726ZM140.936 32.1346C139.939 33.1319 138.718 33.6305 137.274 33.6305C135.831 33.6305 134.606 33.1319 133.599 32.1346C132.602 31.1278 132.103 29.9026 132.103 28.4589C132.103 27.0153 132.602 25.7948 133.599 24.7975C134.606 23.7908 135.831 23.2874 137.274 23.2874C138.718 23.2874 139.939 23.7908 140.936 24.7975C141.943 25.7948 142.446 27.0153 142.446 28.4589C142.446 29.9026 141.943 31.1278 140.936 32.1346ZM134.753 31.0234C135.437 31.6977 136.277 32.0349 137.274 32.0349C138.272 32.0349 139.108 31.6977 139.782 31.0234C140.466 30.3395 140.808 29.4847 140.808 28.4589C140.808 27.4332 140.466 26.5831 139.782 25.9088C139.108 25.2249 138.272 24.883 137.274 24.883C136.277 24.883 135.437 25.2249 134.753 25.9088C134.078 26.5831 133.741 27.4332 133.741 28.4589C133.741 29.4847 134.078 30.3395 134.753 31.0234ZM150.636 23.4726H152.275V33.4453H150.993L146.291 26.6781V33.4453H144.653V23.4726H145.935L150.636 30.2398V23.4726Z" fill="white" style="fill:white;fill-opacity:1;"/>
</svg>
