<svg width="323" height="322" viewBox="0 0 323 322" fill="none" xmlns="http://www.w3.org/2000/svg">
<g clip-path="url(#clip0_1253_1115)">
<rect width="322.308" height="321.464" transform="translate(0.154053 0.352539)" fill="white" style="fill:white;fill-opacity:1;"/>
<path fill-rule="evenodd" clip-rule="evenodd" d="M107.427 268.538L53.7907 322.174L0.153732 268.537L53.7888 214.902L53.7872 214.901L53.7892 214.899L0.153732 161.263L53.7888 107.628L53.7872 107.626L53.7892 107.624L0.153732 53.9889L53.7907 0.351898L107.428 53.9889L161.064 0.351898L214.701 53.9889L214.701 53.9893L268.338 107.626L214.701 161.263L214.701 161.263V161.264L268.338 214.901L214.701 268.537L214.701 268.538L161.064 322.174L107.427 268.538ZM107.426 53.9909L161.061 107.626L107.426 161.261L107.427 161.263L161.064 107.626L161.064 107.626V107.626L107.428 53.9889L107.426 53.9909ZM107.426 161.265L107.427 161.263L161.064 214.9V214.9L161.064 214.901L107.427 268.537L107.426 268.536L161.061 214.901L107.426 161.265ZM268.341 322.174L321.978 268.537L268.341 214.9L214.704 268.537L268.341 322.174ZM268.341 214.9L321.978 161.263L268.341 107.626L214.704 161.263L268.341 214.9ZM321.978 53.9889L268.341 107.626L214.704 53.9889L268.341 0.351898L321.978 53.9889Z" fill="black" style="fill:black;fill-opacity:1;"/>
<path d="M156.102 145.602H159.662V172.397H156.791L143.011 152.377V172.397H139.451V145.602H142.322L156.102 165.583V145.602ZM181.202 169.985C179.237 171.925 176.851 172.895 174.044 172.895C171.237 172.895 168.851 171.925 166.886 169.985C164.947 168.046 163.977 165.66 163.977 162.827C163.977 159.995 164.947 157.609 166.886 155.669C168.851 153.73 171.237 152.76 174.044 152.76C176.851 152.76 179.237 153.73 181.202 155.669C183.167 157.609 184.15 159.995 184.15 162.827C184.15 165.66 183.167 168.046 181.202 169.985ZM174.044 169.641C175.958 169.641 177.566 168.99 178.867 167.689C180.169 166.387 180.82 164.767 180.82 162.827C180.82 160.888 180.169 159.268 178.867 157.966C177.566 156.665 175.958 156.014 174.044 156.014C172.156 156.014 170.561 156.665 169.26 157.966C167.958 159.268 167.307 160.888 167.307 162.827C167.307 164.767 167.958 166.387 169.26 167.689C170.561 168.99 172.156 169.641 174.044 169.641Z" fill="white" style="fill:white;fill-opacity:1;"/>
</g>
<defs>
<clipPath id="clip0_1253_1115">
<rect width="322.308" height="321.464" fill="white" style="fill:white;fill-opacity:1;" transform="translate(0.154053 0.352539)"/>
</clipPath>
</defs>
</svg>
