<svg width="323" height="322" viewBox="0 0 323 322" fill="none" xmlns="http://www.w3.org/2000/svg">
<path fill-rule="evenodd" clip-rule="evenodd" d="M193.876 257.632V321.997L129.511 321.997V257.632H65.1461V193.267H129.511V193.266H65.1461V128.902V128.901V64.5373H129.511V0.172577L193.876 0.172546V64.5373H258.241V128.902H322.602V193.267H258.241V257.632H193.876ZM65.1432 128.901V193.266H0.778078L0.778076 128.901H65.1432Z" fill="black" style="fill:black;fill-opacity:1;"/>
<path d="M103.527 145.423C106.002 145.423 108.056 146.252 109.689 147.911C111.348 149.544 112.178 151.586 112.178 154.036C112.178 156.46 111.348 158.501 109.689 160.16C108.056 161.819 106.002 162.648 103.527 162.648H97.3638V172.218H93.8039V145.423H103.527ZM103.527 159.318C105.007 159.318 106.232 158.82 107.201 157.825C108.171 156.804 108.656 155.541 108.656 154.036C108.656 152.504 108.171 151.241 107.201 150.246C106.232 149.251 105.007 148.753 103.527 148.753H97.3638V159.318H103.527ZM130.427 153.079H133.757V172.218H130.427V168.926C128.768 171.452 126.357 172.715 123.192 172.715C120.513 172.715 118.229 171.746 116.341 169.806C114.452 167.841 113.508 165.455 113.508 162.648C113.508 159.841 114.452 157.468 116.341 155.528C118.229 153.563 120.513 152.581 123.192 152.581C126.357 152.581 128.768 153.844 130.427 156.371V153.079ZM123.613 169.5C125.553 169.5 127.173 168.849 128.475 167.548C129.776 166.221 130.427 164.588 130.427 162.648C130.427 160.709 129.776 159.088 128.475 157.787C127.173 156.46 125.553 155.796 123.613 155.796C121.7 155.796 120.092 156.46 118.79 157.787C117.489 159.088 116.838 160.709 116.838 162.648C116.838 164.588 117.489 166.221 118.79 167.548C120.092 168.849 121.7 169.5 123.613 169.5ZM142.133 156.294C143.23 153.921 145.221 152.734 148.104 152.734V156.217C146.471 156.141 145.068 156.575 143.894 157.519C142.72 158.463 142.133 159.981 142.133 162.074V172.218H138.803V153.079H142.133V156.294ZM162.223 156.294H157.132V166.667C157.132 167.612 157.311 168.288 157.668 168.696C158.051 169.079 158.625 169.283 159.391 169.309C160.156 169.309 161.1 169.283 162.223 169.232V172.218C159.314 172.601 157.183 172.371 155.831 171.529C154.478 170.661 153.802 169.041 153.802 166.667V156.294H150.012V153.079H153.802V148.715L157.132 147.72V153.079H162.223V156.294ZM167.85 149.595C167.212 149.595 166.676 149.378 166.242 148.945C165.809 148.511 165.592 147.988 165.592 147.375C165.592 146.763 165.809 146.24 166.242 145.806C166.676 145.346 167.212 145.117 167.85 145.117C168.462 145.117 168.986 145.346 169.419 145.806C169.853 146.24 170.07 146.763 170.07 147.375C170.07 147.988 169.853 148.511 169.419 148.945C168.986 149.378 168.462 149.595 167.85 149.595ZM166.166 172.218V153.079H169.496V172.218H166.166ZM190.424 153.079H193.754V172.218H190.424V168.926C188.765 171.452 186.353 172.715 183.189 172.715C180.51 172.715 178.226 171.746 176.337 169.806C174.449 167.841 173.505 165.455 173.505 162.648C173.505 159.841 174.449 157.468 176.337 155.528C178.226 153.563 180.51 152.581 183.189 152.581C186.353 152.581 188.765 153.844 190.424 156.371V153.079ZM183.61 169.5C185.55 169.5 187.17 168.849 188.472 167.548C189.773 166.221 190.424 164.588 190.424 162.648C190.424 160.709 189.773 159.088 188.472 157.787C187.17 156.46 185.55 155.796 183.61 155.796C181.696 155.796 180.089 156.46 178.787 157.787C177.486 159.088 176.835 160.709 176.835 162.648C176.835 164.588 177.486 166.221 178.787 167.548C180.089 168.849 181.696 169.5 183.61 169.5ZM198.8 172.218V144.275H202.13V172.218H198.8ZM207.21 172.218V144.275H210.541V172.218H207.21ZM228.98 153.079H232.54L224.731 173.404C223.915 175.574 222.766 177.219 221.286 178.342C219.832 179.491 218.147 180.001 216.234 179.873V176.773C218.581 176.952 220.304 175.65 221.401 172.869L221.746 172.141L213.401 153.079H216.961L223.468 168.084L228.98 153.079Z" fill="white" style="fill:white;fill-opacity:1;"/>
</svg>
