<svg width="128" height="41" viewBox="0 0 128 41" fill="none" xmlns="http://www.w3.org/2000/svg">
<path d="M3.97372 2.54811C4.69028 2.54811 5.28495 2.7882 5.75773 3.26837C6.2379 3.74115 6.47798 4.33212 6.47798 5.0413C6.47798 5.74308 6.2379 6.33406 5.75773 6.81423C5.28495 7.2944 4.69028 7.53448 3.97372 7.53448H2.1897V10.3047H1.15919V2.54811H3.97372ZM3.97372 6.57045C4.40217 6.57045 4.75676 6.4264 5.03747 6.1383C5.31819 5.84281 5.45855 5.47714 5.45855 5.0413C5.45855 4.59806 5.31819 4.2324 5.03747 3.9443C4.75676 3.65619 4.40217 3.51214 3.97372 3.51214H2.1897V6.57045H3.97372ZM12.0711 9.6066C11.5023 10.168 10.8116 10.4487 9.999 10.4487C9.1864 10.4487 8.4957 10.168 7.92688 9.6066C7.36546 9.04517 7.08474 8.35446 7.08474 7.53448C7.08474 6.7145 7.36546 6.0238 7.92688 5.46237C8.4957 4.90094 9.1864 4.62023 9.999 4.62023C10.8116 4.62023 11.5023 4.90094 12.0711 5.46237C12.6399 6.0238 12.9243 6.7145 12.9243 7.53448C12.9243 8.35446 12.6399 9.04517 12.0711 9.6066ZM9.999 9.50687C10.553 9.50687 11.0184 9.31849 11.3952 8.94175C11.7719 8.565 11.9603 8.09591 11.9603 7.53448C11.9603 6.97305 11.7719 6.50397 11.3952 6.12722C11.0184 5.75047 10.553 5.5621 9.999 5.5621C9.45234 5.5621 8.99064 5.75047 8.6139 6.12722C8.23715 6.50397 8.04877 6.97305 8.04877 7.53448C8.04877 8.09591 8.23715 8.565 8.6139 8.94175C8.99064 9.31849 9.45234 9.50687 9.999 9.50687ZM20.5926 4.76428H21.601L19.8834 10.3047H18.8972L17.6008 6.20478L16.3043 10.3047H15.3181L13.6006 4.76428H14.609L15.8279 8.97499L17.1354 4.76428H18.0662L19.3737 8.98607L20.5926 4.76428ZM23.2742 7.97771C23.3702 8.47266 23.5955 8.85679 23.9501 9.13012C24.3121 9.40345 24.7553 9.54011 25.2798 9.54011C26.0111 9.54011 26.543 9.27048 26.8754 8.73121L27.6954 9.19661C27.1561 10.0314 26.3436 10.4487 25.2576 10.4487C24.3786 10.4487 23.662 10.1754 23.108 9.62876C22.5613 9.07472 22.288 8.37662 22.288 7.53448C22.288 6.69973 22.5576 6.00533 23.0969 5.45129C23.6361 4.89725 24.3342 4.62023 25.1911 4.62023C26.0037 4.62023 26.6649 4.90833 27.1746 5.48453C27.6917 6.05335 27.9503 6.74036 27.9503 7.54556C27.9503 7.68592 27.9392 7.82997 27.917 7.97771H23.2742ZM25.1911 5.52885C24.674 5.52885 24.2456 5.6766 23.9058 5.97209C23.566 6.26019 23.3554 6.64802 23.2742 7.13557H26.9752C26.8939 6.61108 26.6871 6.21217 26.3546 5.93884C26.0222 5.66552 25.6344 5.52885 25.1911 5.52885ZM30.2441 5.69507C30.5617 5.00805 31.1379 4.66455 31.9727 4.66455V5.6729C31.4999 5.65074 31.0936 5.77633 30.7538 6.04965C30.414 6.32298 30.2441 6.76252 30.2441 7.36827V10.3047H29.2801V4.76428H30.2441V5.69507ZM33.5105 7.97771C33.6065 8.47266 33.8319 8.85679 34.1864 9.13012C34.5484 9.40345 34.9916 9.54011 35.5161 9.54011C36.2475 9.54011 36.7794 9.27048 37.1118 8.73121L37.9318 9.19661C37.3925 10.0314 36.5799 10.4487 35.494 10.4487C34.6149 10.4487 33.8983 10.1754 33.3443 9.62876C32.7976 9.07472 32.5243 8.37662 32.5243 7.53448C32.5243 6.69973 32.7939 6.00533 33.3332 5.45129C33.8725 4.89725 34.5706 4.62023 35.4275 4.62023C36.2401 4.62023 36.9012 4.90833 37.411 5.48453C37.9281 6.05335 38.1866 6.74036 38.1866 7.54556C38.1866 7.68592 38.1755 7.82997 38.1534 7.97771H33.5105ZM35.4275 5.52885C34.9104 5.52885 34.4819 5.6766 34.1421 5.97209C33.8023 6.26019 33.5918 6.64802 33.5105 7.13557H37.2115C37.1302 6.61108 36.9234 6.21217 36.591 5.93884C36.2586 5.66552 35.8707 5.52885 35.4275 5.52885ZM44.093 2.54811H45.0571V10.3047H44.093V9.35174C43.6129 10.0831 42.9148 10.4487 41.9988 10.4487C41.2231 10.4487 40.562 10.168 40.0153 9.6066C39.4686 9.03778 39.1953 8.34708 39.1953 7.53448C39.1953 6.72189 39.4686 6.03488 40.0153 5.47345C40.562 4.90463 41.2231 4.62023 41.9988 4.62023C42.9148 4.62023 43.6129 4.98589 44.093 5.71723V2.54811ZM42.1207 9.51795C42.6821 9.51795 43.1512 9.32958 43.5279 8.95283C43.9047 8.56869 44.093 8.09591 44.093 7.53448C44.093 6.97305 43.9047 6.50397 43.5279 6.12722C43.1512 5.74308 42.6821 5.55102 42.1207 5.55102C41.5666 5.55102 41.1012 5.74308 40.7245 6.12722C40.3477 6.50397 40.1593 6.97305 40.1593 7.53448C40.1593 8.09591 40.3477 8.56869 40.7245 8.95283C41.1012 9.32958 41.5666 9.51795 42.1207 9.51795ZM52.7894 4.62023C53.5651 4.62023 54.2262 4.90463 54.7729 5.47345C55.3195 6.03488 55.5929 6.72189 55.5929 7.53448C55.5929 8.34708 55.3195 9.03778 54.7729 9.6066C54.2262 10.168 53.5651 10.4487 52.7894 10.4487C51.8734 10.4487 51.1753 10.0831 50.6951 9.35174V10.3047H49.7311V2.54811H50.6951V5.71723C51.1753 4.98589 51.8734 4.62023 52.7894 4.62023ZM52.6675 9.51795C53.2216 9.51795 53.687 9.32958 54.0637 8.95283C54.4405 8.56869 54.6288 8.09591 54.6288 7.53448C54.6288 6.97305 54.4405 6.50397 54.0637 6.12722C53.687 5.74308 53.2216 5.55102 52.6675 5.55102C52.1061 5.55102 51.637 5.74308 51.2603 6.12722C50.8835 6.50397 50.6951 6.97305 50.6951 7.53448C50.6951 8.09591 50.8835 8.56869 51.2603 8.95283C51.637 9.32958 52.1061 9.51795 52.6675 9.51795ZM60.6156 4.76428H61.6461L59.3856 10.6482C59.1492 11.2761 58.8168 11.7526 58.3883 12.0776C57.9673 12.41 57.4797 12.5578 56.9257 12.5209V11.6233C57.6053 11.675 58.1039 11.2983 58.4216 10.4931L58.5213 10.2825L56.1057 4.76428H57.1362L59.0199 9.10796L60.6156 4.76428Z" fill="white" style="fill:white;fill-opacity:1;"/>
<mask id="mask0_1253_2145" style="mask-type:alpha" maskUnits="userSpaceOnUse" x="56" y="17" width="72" height="13">
<rect x="56.7629" y="17.4131" width="70.81" height="12.3148" fill="#CCCCCC" style="fill:#CCCCCC;fill:color(display-p3 0.8013 0.8013 0.8013);fill-opacity:1;"/>
</mask>
<g mask="url(#mask0_1253_2145)">
<path d="M67.6015 20.1841C68.6143 20.1841 69.4305 20.5117 70.0501 21.1671C70.6697 21.8224 70.9795 22.7042 70.9795 23.8123V29.353H69.0492V23.9374C69.0492 23.3178 68.8943 22.8412 68.5845 22.5076C68.2747 22.162 67.8517 21.9892 67.3155 21.9892C66.7197 21.9892 66.2431 22.1859 65.8857 22.5791C65.5401 22.9723 65.3673 23.5621 65.3673 24.3485V29.353H63.437V23.9374C63.437 23.3178 63.2881 22.8412 62.9902 22.5076C62.7042 22.162 62.2931 21.9892 61.7569 21.9892C61.1731 21.9892 60.6965 22.1918 60.3271 22.5969C59.9577 22.9902 59.773 23.574 59.773 24.3485V29.353H57.8427V20.4164H59.773V21.4888C60.3449 20.619 61.1969 20.1841 62.3289 20.1841C63.4728 20.1841 64.3188 20.6547 64.8669 21.596C65.4627 20.6547 66.3742 20.1841 67.6015 20.1841ZM74.3859 25.7069C74.5289 26.3861 74.8566 26.9103 75.3689 27.2797C75.8813 27.6372 76.5069 27.8159 77.2456 27.8159C78.2704 27.8159 79.0389 27.4465 79.5513 26.7078L81.142 27.6372C80.2603 28.936 78.9555 29.5854 77.2278 29.5854C75.7741 29.5854 74.6004 29.1445 73.7067 28.2628C72.8131 27.3691 72.3662 26.2431 72.3662 24.8847C72.3662 23.5502 72.8071 22.4361 73.6889 21.5424C74.5706 20.6368 75.7026 20.1841 77.0848 20.1841C78.3955 20.1841 79.4679 20.6428 80.302 21.5603C81.148 22.4778 81.571 23.5919 81.571 24.9026C81.571 25.1052 81.5471 25.3733 81.4995 25.7069H74.3859ZM74.368 24.134H79.6228C79.4917 23.4072 79.1879 22.8591 78.7112 22.4897C78.2465 22.1203 77.6984 21.9356 77.0669 21.9356C76.352 21.9356 75.7562 22.1322 75.2796 22.5254C74.803 22.9187 74.4991 23.4549 74.368 24.134ZM90.1162 16.8418H92.0465V29.353H90.1162V28.0662C89.3893 29.079 88.3467 29.5854 86.9884 29.5854C85.7611 29.5854 84.7125 29.1326 83.8427 28.227C82.9729 27.3095 82.5379 26.1954 82.5379 24.8847C82.5379 23.5621 82.9729 22.448 83.8427 21.5424C84.7125 20.6368 85.7611 20.1841 86.9884 20.1841C88.3467 20.1841 89.3893 20.6845 90.1162 21.6854V16.8418ZM85.2725 26.9401C85.8087 27.4763 86.482 27.7444 87.2922 27.7444C88.1025 27.7444 88.7757 27.4763 89.3119 26.9401C89.8481 26.392 90.1162 25.7069 90.1162 24.8847C90.1162 24.0625 89.8481 23.3834 89.3119 22.8472C88.7757 22.2991 88.1025 22.025 87.2922 22.025C86.482 22.025 85.8087 22.2991 85.2725 22.8472C84.7363 23.3834 84.4682 24.0625 84.4682 24.8847C84.4682 25.7069 84.7363 26.392 85.2725 26.9401ZM95.9408 18.7184C95.7025 18.9568 95.4165 19.0759 95.0829 19.0759C94.7492 19.0759 94.4573 18.9568 94.2071 18.7184C93.9688 18.4682 93.8496 18.1763 93.8496 17.8427C93.8496 17.509 93.9688 17.223 94.2071 16.9847C94.4454 16.7345 94.7373 16.6094 95.0829 16.6094C95.4284 16.6094 95.7203 16.7345 95.9587 16.9847C96.197 17.223 96.3161 17.509 96.3161 17.8427C96.3161 18.1763 96.191 18.4682 95.9408 18.7184ZM94.1177 29.353V20.4164H96.048V29.353H94.1177ZM105.188 20.4164H107.119V29.353H105.188V28.0662C104.462 29.079 103.419 29.5854 102.061 29.5854C100.833 29.5854 99.7847 29.1326 98.9149 28.227C98.045 27.3095 97.6101 26.1954 97.6101 24.8847C97.6101 23.5621 98.045 22.448 98.9149 21.5424C99.7847 20.6368 100.833 20.1841 102.061 20.1841C103.419 20.1841 104.462 20.6845 105.188 21.6854V20.4164ZM100.345 26.9401C100.881 27.4763 101.554 27.7444 102.364 27.7444C103.175 27.7444 103.848 27.4763 104.384 26.9401C104.92 26.392 105.188 25.7069 105.188 24.8847C105.188 24.0625 104.92 23.3834 104.384 22.8472C103.848 22.2991 103.175 22.025 102.364 22.025C101.554 22.025 100.881 22.2991 100.345 22.8472C99.8085 23.3834 99.5404 24.0625 99.5404 24.8847C99.5404 25.7069 99.8085 26.392 100.345 26.9401Z" fill="white" style="fill:white;fill-opacity:1;"/>
</g>
<mask id="mask1_1253_2145" style="mask-type:alpha" maskUnits="userSpaceOnUse" x="56" y="29" width="51" height="13">
<rect x="56.7629" y="29.7275" width="49.2591" height="11.2885" fill="#CCCCCC" style="fill:#CCCCCC;fill:color(display-p3 0.8013 0.8013 0.8013);fill-opacity:1;"/>
</mask>
<g mask="url(#mask1_1253_2145)">
<path d="M62.8293 33.2484H60.613V37.5379C60.613 37.9073 60.6965 38.1754 60.8633 38.3422C61.0301 38.4971 61.2744 38.5865 61.5961 38.6103C61.9297 38.6223 62.3408 38.6163 62.8293 38.5925V40.3262C61.3518 40.5049 60.2913 40.3798 59.6479 39.9508C59.0045 39.51 58.6827 38.7057 58.6827 37.5379V33.2484H57.0384V31.3895H58.6827V29.4592L60.613 28.8873V31.3895H62.8293V33.2484ZM65.554 36.68C65.697 37.3592 66.0247 37.8835 66.537 38.2529C67.0494 38.6103 67.675 38.7891 68.4137 38.7891C69.4385 38.7891 70.207 38.4197 70.7194 37.6809L72.3101 38.6103C71.4284 39.9091 70.1236 40.5585 68.3959 40.5585C66.9422 40.5585 65.7685 40.1177 64.8748 39.2359C63.9812 38.3422 63.5343 37.2162 63.5343 35.8579C63.5343 34.5233 63.9752 33.4092 64.857 32.5156C65.7387 31.61 66.8707 31.1572 68.2529 31.1572C69.5636 31.1572 70.636 31.6159 71.4701 32.5334C72.3161 33.4509 72.7391 34.565 72.7391 35.8757C72.7391 36.0783 72.7152 36.3464 72.6676 36.68H65.554ZM65.5361 35.1072H70.7909C70.6598 34.3803 70.356 33.8322 69.8793 33.4628C69.4146 33.0935 68.8665 32.9088 68.235 32.9088C67.5201 32.9088 66.9243 33.1054 66.4477 33.4986C65.9711 33.8918 65.6672 34.428 65.5361 35.1072ZM78.4246 40.5585C77.0781 40.5585 75.9521 40.1057 75.0465 39.2002C74.1529 38.2946 73.706 37.1805 73.706 35.8579C73.706 34.5233 74.1529 33.4092 75.0465 32.5156C75.9521 31.61 77.0781 31.1572 78.4246 31.1572C79.2944 31.1572 80.0868 31.3657 80.8017 31.7828C81.5166 32.1998 82.0528 32.7598 82.4103 33.4628L80.7481 34.428C80.5455 33.999 80.2357 33.6654 79.8187 33.4271C79.4136 33.1769 78.9429 33.0518 78.4067 33.0518C77.6203 33.0518 76.959 33.3199 76.4228 33.8561C75.8985 34.3923 75.6363 35.0595 75.6363 35.8579C75.6363 36.6562 75.8985 37.3235 76.4228 37.8597C76.959 38.3959 77.6203 38.664 78.4067 38.664C78.931 38.664 79.4016 38.5388 79.8187 38.2886C80.2476 38.0384 80.5694 37.7048 80.7838 37.2877L82.4461 38.235C82.0648 38.9499 81.5166 39.5159 80.8017 39.933C80.0868 40.35 79.2944 40.5585 78.4246 40.5585ZM88.3632 31.1572C89.3879 31.1572 90.2161 31.4849 90.8476 32.1402C91.4791 32.7956 91.7949 33.6952 91.7949 34.8391V40.3262H89.8646V35.0357C89.8646 34.3684 89.6858 33.8561 89.3284 33.4986C88.9709 33.1411 88.4824 32.9624 87.8628 32.9624C87.1836 32.9624 86.6355 33.1769 86.2184 33.6058C85.8014 34.0229 85.5929 34.6663 85.5929 35.5361V40.3262H83.6626V27.8149H85.5929V32.5334C86.1767 31.6159 87.1002 31.1572 88.3632 31.1572Z" fill="white" style="fill:white;fill-opacity:1;"/>
</g>
<path d="M21.4321 29.9708C21.4321 32.828 21.4321 35.6852 21.4321 38.5424C21.4321 39.4884 20.9374 40.198 20.1253 40.4345C18.9866 40.7657 17.8759 39.971 17.8012 38.76C17.8012 38.741 17.8012 38.7221 17.8012 38.7032C17.7546 38.5329 17.7079 38.3626 17.6519 38.2018C17.5025 38.2869 17.3345 38.3531 17.2039 38.4572C16.0278 39.3465 14.7304 39.9615 13.3117 40.321C7.54337 41.7496 1.6444 37.9179 0.524342 32.0049C-0.55838 26.3189 2.9418 20.8221 8.50475 19.5449C11.5942 18.8353 14.4504 19.4503 17.0452 21.3141C17.1572 21.3992 17.2599 21.5033 17.3719 21.5884C17.6052 21.7682 17.7359 21.7114 17.7826 21.4276C17.8012 21.2857 17.7919 21.1343 17.8106 20.9924C17.9599 19.999 18.7533 19.3083 19.6867 19.3651C20.676 19.4219 21.4134 20.1977 21.4227 21.2289C21.4321 21.9952 21.4227 22.7521 21.4227 23.5184C21.4321 25.6661 21.4321 27.8232 21.4321 29.9708ZM17.7546 29.9329C17.7546 26.0634 14.6557 22.9319 10.8475 22.9319C7.04868 22.9319 3.94985 26.0823 3.94985 29.9424C3.95919 33.793 7.04868 36.9435 10.8289 36.9435C14.6651 36.9529 17.7639 33.8119 17.7546 29.9329Z" fill="white" style="fill:white;fill-opacity:1;"/>
<path d="M33.2072 29.8858C33.2072 27.0097 33.2072 24.1336 33.2072 21.248C33.2072 20.2262 33.8606 19.4788 34.8593 19.3558C35.27 19.3085 35.6433 19.4315 36.0073 19.6302C41.0103 22.4401 46.0132 25.2405 51.0161 28.0599C51.3055 28.2207 51.6041 28.391 51.8468 28.6086C52.6682 29.3655 52.5282 30.7562 51.5575 31.409C51.0628 31.7401 50.5214 32.0145 49.9987 32.3078C45.3411 34.9285 40.6742 37.5491 36.0167 40.1698C34.6633 40.9267 33.2165 40.0847 33.2165 38.5142C33.2072 35.6475 33.2072 32.7714 33.2072 29.8858ZM36.8287 29.9142C36.8287 31.4374 36.8287 32.9701 36.8287 34.4933C36.8287 34.6446 36.8474 34.8055 36.8847 34.9474C36.9314 35.1272 37.0621 35.2028 37.2301 35.165C37.3514 35.1366 37.4634 35.0893 37.5754 35.0325C40.4036 33.481 43.2317 31.9388 46.0598 30.3778C46.2465 30.2737 46.4799 30.094 46.5079 29.9142C46.5545 29.6493 46.2652 29.5358 46.0505 29.4222C43.1944 27.8612 40.3382 26.2907 37.4821 24.7296C37.0807 24.512 36.8567 24.635 36.8194 25.1081C36.81 25.2027 36.8194 25.2973 36.8194 25.4013C36.8287 26.9056 36.8287 28.4099 36.8287 29.9142Z" fill="white" style="fill:white;fill-opacity:1;"/>
<path d="M29.1215 29.8858C29.1215 32.7524 29.1215 35.6191 29.1215 38.4952C29.1215 39.5075 28.5242 40.2265 27.5814 40.3874C26.5454 40.5671 25.5467 39.744 25.5 38.6655C25.5 38.6182 25.5 38.5709 25.5 38.5236C25.5 32.7714 25.5 27.0097 25.5 21.2574C25.5 20.283 26.116 19.545 27.0401 19.3936C28.0761 19.2233 29.0562 20.0181 29.1122 21.0871C29.1309 21.5129 29.1215 21.9386 29.1215 22.3644C29.1215 24.862 29.1215 27.3786 29.1215 29.8858Z" fill="white" style="fill:white;fill-opacity:1;"/>
<path d="M46.8558 36.646C47.9435 36.6461 48.8215 37.5263 48.8216 38.6177C48.8216 39.6986 47.9542 40.579 46.8851 40.5894C45.8044 40.5995 44.9171 39.6981 44.9271 38.6069C44.9185 37.5256 45.7777 36.6561 46.8548 36.646H46.8558Z" fill="white" stroke="white" style="fill:white;fill-opacity:1;stroke:white;stroke-opacity:1;" stroke-width="0.253865"/>
</svg>
