<svg width="129" height="41" viewBox="0 0 129 41" fill="none" xmlns="http://www.w3.org/2000/svg">
<path d="M4.53622 2.63405C5.25278 2.63405 5.84745 2.87413 6.32023 3.3543C6.8004 3.82708 7.04048 4.41806 7.04048 5.12723C7.04048 5.82902 6.8004 6.42 6.32023 6.90017C5.84745 7.38034 5.25278 7.62042 4.53622 7.62042H2.7522V10.3906H1.72169V2.63405H4.53622ZM4.53622 6.65639C4.96467 6.65639 5.31926 6.51234 5.59997 6.22424C5.88069 5.92875 6.02105 5.56308 6.02105 5.12723C6.02105 4.684 5.88069 4.31833 5.59997 4.03023C5.31926 3.74213 4.96467 3.59808 4.53622 3.59808H2.7522V6.65639H4.53622ZM12.6336 9.69253C12.0648 10.254 11.3741 10.5347 10.5615 10.5347C9.7489 10.5347 9.0582 10.254 8.48938 9.69253C7.92796 9.1311 7.64724 8.4404 7.64724 7.62042C7.64724 6.80044 7.92796 6.10973 8.48938 5.54831C9.0582 4.98688 9.7489 4.70616 10.5615 4.70616C11.3741 4.70616 12.0648 4.98688 12.6336 5.54831C13.2024 6.10973 13.4868 6.80044 13.4868 7.62042C13.4868 8.4404 13.2024 9.1311 12.6336 9.69253ZM10.5615 9.59281C11.1155 9.59281 11.5809 9.40443 11.9577 9.02768C12.3344 8.65094 12.5228 8.18185 12.5228 7.62042C12.5228 7.05899 12.3344 6.5899 11.9577 6.21316C11.5809 5.83641 11.1155 5.64803 10.5615 5.64803C10.0148 5.64803 9.55314 5.83641 9.1764 6.21316C8.79965 6.5899 8.61127 7.05899 8.61127 7.62042C8.61127 8.18185 8.79965 8.65094 9.1764 9.02768C9.55314 9.40443 10.0148 9.59281 10.5615 9.59281ZM21.1551 4.85021H22.1635L20.4459 10.3906H19.4597L18.1633 6.29072L16.8668 10.3906H15.8806L14.1631 4.85021H15.1715L16.3904 9.06093L17.6979 4.85021H18.6287L19.9362 9.07201L21.1551 4.85021ZM23.8367 8.06365C23.9327 8.5586 24.158 8.94273 24.5126 9.21606C24.8746 9.48938 25.3178 9.62605 25.8423 9.62605C26.5736 9.62605 27.1055 9.35641 27.4379 8.81715L28.2579 9.28254C27.7186 10.1173 26.9061 10.5347 25.8201 10.5347C24.9411 10.5347 24.2245 10.2613 23.6705 9.71469C23.1238 9.16065 22.8505 8.46256 22.8505 7.62042C22.8505 6.78566 23.1201 6.09127 23.6594 5.53723C24.1986 4.98318 24.8967 4.70616 25.7536 4.70616C26.5662 4.70616 27.2274 4.99426 27.7371 5.57047C28.2542 6.13928 28.5128 6.82629 28.5128 7.6315C28.5128 7.77186 28.5017 7.91591 28.4795 8.06365H23.8367ZM25.7536 5.61479C25.2365 5.61479 24.8081 5.76254 24.4683 6.05802C24.1285 6.34612 23.9179 6.73395 23.8367 7.22151H27.5377C27.4564 6.69702 27.2496 6.29811 26.9171 6.02478C26.5847 5.75145 26.1969 5.61479 25.7536 5.61479ZM30.8066 5.781C31.1242 5.09399 31.7004 4.75049 32.5352 4.75049V5.75884C32.0624 5.73668 31.6561 5.86226 31.3163 6.13559C30.9765 6.40892 30.8066 6.84846 30.8066 7.45421V10.3906H29.8426V4.85021H30.8066V5.781ZM34.073 8.06365C34.169 8.5586 34.3944 8.94273 34.7489 9.21606C35.1109 9.48938 35.5541 9.62605 36.0786 9.62605C36.81 9.62605 37.3419 9.35641 37.6743 8.81715L38.4943 9.28254C37.955 10.1173 37.1424 10.5347 36.0565 10.5347C35.1774 10.5347 34.4608 10.2613 33.9068 9.71469C33.3601 9.16065 33.0868 8.46256 33.0868 7.62042C33.0868 6.78566 33.3564 6.09127 33.8957 5.53723C34.435 4.98318 35.1331 4.70616 35.99 4.70616C36.8026 4.70616 37.4637 4.99426 37.9735 5.57047C38.4906 6.13928 38.7491 6.82629 38.7491 7.6315C38.7491 7.77186 38.738 7.91591 38.7159 8.06365H34.073ZM35.99 5.61479C35.4729 5.61479 35.0444 5.76254 34.7046 6.05802C34.3648 6.34612 34.1543 6.73395 34.073 7.22151H37.774C37.6927 6.69702 37.4859 6.29811 37.1535 6.02478C36.8211 5.75145 36.4332 5.61479 35.99 5.61479ZM44.6555 2.63405H45.6196V10.3906H44.6555V9.43767C44.1754 10.169 43.4773 10.5347 42.5613 10.5347C41.7856 10.5347 41.1245 10.254 40.5778 9.69253C40.0311 9.12372 39.7578 8.43301 39.7578 7.62042C39.7578 6.80783 40.0311 6.12082 40.5778 5.55939C41.1245 4.99057 41.7856 4.70616 42.5613 4.70616C43.4773 4.70616 44.1754 5.07183 44.6555 5.80316V2.63405ZM42.6832 9.60389C43.2446 9.60389 43.7137 9.41551 44.0904 9.03876C44.4672 8.65463 44.6555 8.18185 44.6555 7.62042C44.6555 7.05899 44.4672 6.5899 44.0904 6.21316C43.7137 5.82902 43.2446 5.63695 42.6832 5.63695C42.1291 5.63695 41.6637 5.82902 41.287 6.21316C40.9102 6.5899 40.7218 7.05899 40.7218 7.62042C40.7218 8.18185 40.9102 8.65463 41.287 9.03876C41.6637 9.41551 42.1291 9.60389 42.6832 9.60389ZM53.3519 4.70616C54.1276 4.70616 54.7887 4.99057 55.3354 5.55939C55.882 6.12082 56.1554 6.80783 56.1554 7.62042C56.1554 8.43301 55.882 9.12372 55.3354 9.69253C54.7887 10.254 54.1276 10.5347 53.3519 10.5347C52.4359 10.5347 51.7378 10.169 51.2576 9.43767V10.3906H50.2936V2.63405H51.2576V5.80316C51.7378 5.07183 52.4359 4.70616 53.3519 4.70616ZM53.23 9.60389C53.7841 9.60389 54.2495 9.41551 54.6262 9.03876C55.003 8.65463 55.1913 8.18185 55.1913 7.62042C55.1913 7.05899 55.003 6.5899 54.6262 6.21316C54.2495 5.82902 53.7841 5.63695 53.23 5.63695C52.6686 5.63695 52.1995 5.82902 51.8228 6.21316C51.446 6.5899 51.2576 7.05899 51.2576 7.62042C51.2576 8.18185 51.446 8.65463 51.8228 9.03876C52.1995 9.41551 52.6686 9.60389 53.23 9.60389ZM61.1781 4.85021H62.2086L59.9481 10.7341C59.7117 11.362 59.3793 11.8385 58.9508 12.1636C58.5298 12.496 58.0422 12.6437 57.4882 12.6068V11.7092C58.1678 11.761 58.6664 11.3842 58.9841 10.579L59.0838 10.3685L56.6682 4.85021H57.6987L59.5824 9.1939L61.1781 4.85021Z" fill="black" style="fill:black;fill-opacity:1;"/>
<mask id="mask0_1253_3827" style="mask-type:alpha" maskUnits="userSpaceOnUse" x="57" y="17" width="72" height="13">
<rect x="57.3253" y="17.499" width="70.81" height="12.3148" fill="#CCCCCC" style="fill:#CCCCCC;fill:color(display-p3 0.8013 0.8013 0.8013);fill-opacity:1;"/>
</mask>
<g mask="url(#mask0_1253_3827)">
<path d="M68.164 20.27C69.1768 20.27 69.993 20.5977 70.6126 21.253C71.2322 21.9084 71.542 22.7901 71.542 23.8983V29.439H69.6117V24.0234C69.6117 23.4038 69.4568 22.9271 69.147 22.5935C68.8372 22.248 68.4142 22.0752 67.878 22.0752C67.2822 22.0752 66.8056 22.2718 66.4482 22.665C66.1026 23.0582 65.9298 23.648 65.9298 24.4345V29.439H63.9995V24.0234C63.9995 23.4038 63.8506 22.9271 63.5527 22.5935C63.2667 22.248 62.8556 22.0752 62.3194 22.0752C61.7356 22.0752 61.259 22.2777 60.8896 22.6829C60.5202 23.0761 60.3355 23.6599 60.3355 24.4345V29.439H58.4052V20.5023H60.3355V21.5747C60.9074 20.7049 61.7594 20.27 62.8914 20.27C64.0353 20.27 64.8813 20.7407 65.4294 21.682C66.0252 20.7407 66.9367 20.27 68.164 20.27ZM74.9484 25.7928C75.0914 26.472 75.4191 26.9963 75.9314 27.3657C76.4438 27.7231 77.0694 27.9019 77.8081 27.9019C78.8329 27.9019 79.6014 27.5325 80.1138 26.7937L81.7045 27.7231C80.8228 29.0219 79.518 29.6713 77.7903 29.6713C76.3366 29.6713 75.1629 29.2304 74.2692 28.3487C73.3756 27.455 72.9287 26.329 72.9287 24.9707C72.9287 23.6361 73.3696 22.522 74.2514 21.6284C75.1331 20.7228 76.2651 20.27 77.6473 20.27C78.958 20.27 80.0304 20.7287 80.8645 21.6462C81.7105 22.5637 82.1335 23.6778 82.1335 24.9885C82.1335 25.1911 82.1096 25.4592 82.062 25.7928H74.9484ZM74.9305 24.22H80.1853C80.0542 23.4931 79.7504 22.945 79.2737 22.5756C78.809 22.2063 78.2609 22.0216 77.6294 22.0216C76.9145 22.0216 76.3187 22.2182 75.8421 22.6114C75.3655 23.0046 75.0616 23.5408 74.9305 24.22ZM90.6787 16.9277H92.609V29.439H90.6787V28.1521C89.9518 29.1649 88.9092 29.6713 87.5509 29.6713C86.3236 29.6713 85.275 29.2185 84.4052 28.313C83.5354 27.3955 83.1004 26.2814 83.1004 24.9707C83.1004 23.648 83.5354 22.5339 84.4052 21.6284C85.275 20.7228 86.3236 20.27 87.5509 20.27C88.9092 20.27 89.9518 20.7704 90.6787 21.7713V16.9277ZM85.835 27.0261C86.3712 27.5623 87.0445 27.8304 87.8547 27.8304C88.665 27.8304 89.3382 27.5623 89.8744 27.0261C90.4106 26.478 90.6787 25.7928 90.6787 24.9707C90.6787 24.1485 90.4106 23.4693 89.8744 22.9331C89.3382 22.385 88.665 22.1109 87.8547 22.1109C87.0445 22.1109 86.3712 22.385 85.835 22.9331C85.2988 23.4693 85.0307 24.1485 85.0307 24.9707C85.0307 25.7928 85.2988 26.478 85.835 27.0261ZM96.5033 18.8044C96.265 19.0427 95.979 19.1618 95.6454 19.1618C95.3117 19.1618 95.0198 19.0427 94.7696 18.8044C94.5313 18.5542 94.4121 18.2622 94.4121 17.9286C94.4121 17.595 94.5313 17.309 94.7696 17.0707C95.0079 16.8205 95.2998 16.6953 95.6454 16.6953C95.9909 16.6953 96.2828 16.8205 96.5212 17.0707C96.7595 17.309 96.8786 17.595 96.8786 17.9286C96.8786 18.2622 96.7535 18.5542 96.5033 18.8044ZM94.6802 29.439V20.5023H96.6105V29.439H94.6802ZM105.751 20.5023H107.681V29.439H105.751V28.1521C105.024 29.1649 103.981 29.6713 102.623 29.6713C101.396 29.6713 100.347 29.2185 99.4774 28.313C98.6075 27.3955 98.1726 26.2814 98.1726 24.9707C98.1726 23.648 98.6075 22.5339 99.4774 21.6284C100.347 20.7228 101.396 20.27 102.623 20.27C103.981 20.27 105.024 20.7704 105.751 21.7713V20.5023ZM100.907 27.0261C101.443 27.5623 102.117 27.8304 102.927 27.8304C103.737 27.8304 104.41 27.5623 104.947 27.0261C105.483 26.478 105.751 25.7928 105.751 24.9707C105.751 24.1485 105.483 23.4693 104.947 22.9331C104.41 22.385 103.737 22.1109 102.927 22.1109C102.117 22.1109 101.443 22.385 100.907 22.9331C100.371 23.4693 100.103 24.1485 100.103 24.9707C100.103 25.7928 100.371 26.478 100.907 27.0261Z" fill="black" style="fill:black;fill-opacity:1;"/>
</g>
<mask id="mask1_1253_3827" style="mask-type:alpha" maskUnits="userSpaceOnUse" x="57" y="29" width="50" height="13">
<rect x="57.3253" y="29.8135" width="49.2591" height="11.2885" fill="#CCCCCC" style="fill:#CCCCCC;fill:color(display-p3 0.8013 0.8013 0.8013);fill-opacity:1;"/>
</mask>
<g mask="url(#mask1_1253_3827)">
<path d="M63.3918 33.3343H61.1755V37.6239C61.1755 37.9933 61.259 38.2614 61.4258 38.4282C61.5926 38.5831 61.8369 38.6724 62.1586 38.6963C62.4922 38.7082 62.9033 38.7022 63.3918 38.6784V40.4121C61.9143 40.5908 60.8538 40.4657 60.2104 40.0368C59.567 39.5959 59.2452 38.7916 59.2452 37.6239V33.3343H57.6009V31.4755H59.2452V29.5452L61.1755 28.9732V31.4755H63.3918V33.3343ZM66.1165 36.766C66.2595 37.4451 66.5872 37.9694 67.0995 38.3388C67.6119 38.6963 68.2375 38.875 68.9762 38.875C70.001 38.875 70.7695 38.5056 71.2819 37.7669L72.8726 38.6963C71.9909 39.9951 70.6861 40.6445 68.9584 40.6445C67.5047 40.6445 66.331 40.2036 65.4373 39.3218C64.5437 38.4282 64.0968 37.3022 64.0968 35.9438C64.0968 34.6093 64.5377 33.4952 65.4195 32.6015C66.3012 31.6959 67.4332 31.2431 68.8154 31.2431C70.1261 31.2431 71.1985 31.7019 72.0326 32.6194C72.8786 33.5369 73.3016 34.651 73.3016 35.9617C73.3016 36.1642 73.2777 36.4323 73.2301 36.766H66.1165ZM66.0986 35.1931H71.3534C71.2223 34.4663 70.9185 33.9182 70.4418 33.5488C69.9771 33.1794 69.429 32.9947 68.7975 32.9947C68.0826 32.9947 67.4868 33.1913 67.0102 33.5845C66.5336 33.9777 66.2297 34.5139 66.0986 35.1931ZM78.9871 40.6445C77.6406 40.6445 76.5146 40.1917 75.609 39.2861C74.7154 38.3805 74.2685 37.2664 74.2685 35.9438C74.2685 34.6093 74.7154 33.4952 75.609 32.6015C76.5146 31.6959 77.6406 31.2431 78.9871 31.2431C79.8569 31.2431 80.6493 31.4517 81.3642 31.8687C82.0791 32.2857 82.6153 32.8458 82.9728 33.5488L81.3106 34.5139C81.108 34.085 80.7982 33.7513 80.3812 33.513C79.9761 33.2628 79.5054 33.1377 78.9692 33.1377C78.1828 33.1377 77.5215 33.4058 76.9853 33.942C76.461 34.4782 76.1988 35.1455 76.1988 35.9438C76.1988 36.7421 76.461 37.4094 76.9853 37.9456C77.5215 38.4818 78.1828 38.7499 78.9692 38.7499C79.4935 38.7499 79.9641 38.6248 80.3812 38.3746C80.8101 38.1243 81.1319 37.7907 81.3463 37.3737L83.0086 38.3209C82.6273 39.0359 82.0791 39.6019 81.3642 40.0189C80.6493 40.4359 79.8569 40.6445 78.9871 40.6445ZM88.9257 31.2431C89.9504 31.2431 90.7786 31.5708 91.4101 32.2262C92.0416 32.8815 92.3574 33.7811 92.3574 34.925V40.4121H90.4271V35.1216C90.4271 34.4544 90.2483 33.942 89.8909 33.5845C89.5334 33.2271 89.0449 33.0483 88.4253 33.0483C87.7461 33.0483 87.198 33.2628 86.7809 33.6918C86.3639 34.1088 86.1554 34.7522 86.1554 35.6221V40.4121H84.2251V27.9008H86.1554V32.6194C86.7392 31.7019 87.6627 31.2431 88.9257 31.2431Z" fill="black" style="fill:black;fill-opacity:1;"/>
</g>
<path d="M21.9946 30.0567C21.9946 32.9139 21.9946 35.7711 21.9946 38.6283C21.9946 39.5744 21.4999 40.2839 20.6878 40.5205C19.5491 40.8516 18.4384 40.0569 18.3637 38.8459C18.3637 38.827 18.3637 38.808 18.3637 38.7891C18.3171 38.6188 18.2704 38.4485 18.2144 38.2877C18.065 38.3728 17.897 38.4391 17.7664 38.5431C16.5903 39.4325 15.2929 40.0474 13.8742 40.4069C8.10587 41.8355 2.2069 38.0039 1.08684 32.0908C0.00412029 26.4048 3.5043 20.908 9.06725 19.6308C12.1567 18.9212 15.0129 19.5362 17.6077 21.4C17.7197 21.4851 17.8224 21.5892 17.9344 21.6744C18.1677 21.8541 18.2984 21.7973 18.3451 21.5135C18.3637 21.3716 18.3544 21.2202 18.3731 21.0783C18.5224 20.0849 19.3158 19.3943 20.2492 19.451C21.2385 19.5078 21.9759 20.2836 21.9852 21.3148C21.9946 22.0812 21.9852 22.838 21.9852 23.6044C21.9946 25.752 21.9946 27.9091 21.9946 30.0567ZM18.3171 30.0189C18.3171 26.1494 15.2182 23.0178 11.41 23.0178C7.61118 23.0178 4.51235 26.1683 4.51235 30.0283C4.52169 33.8789 7.61118 37.0294 11.3914 37.0294C15.2276 37.0389 18.3264 33.8978 18.3171 30.0189Z" fill="black" style="fill:black;fill-opacity:1;"/>
<path d="M33.7697 29.9718C33.7697 27.0956 33.7697 24.2195 33.7697 21.3339C33.7697 20.3122 34.423 19.5648 35.4217 19.4418C35.8324 19.3945 36.2058 19.5175 36.5698 19.7161C41.5727 22.526 46.5756 25.3264 51.5786 28.1458C51.8679 28.3066 52.1666 28.4769 52.4093 28.6945C53.2307 29.4514 53.0906 30.8422 52.1199 31.495C51.6252 31.8261 51.0839 32.1005 50.5612 32.3937C45.9036 35.0144 41.2367 37.6351 36.5791 40.2558C35.2257 41.0126 33.779 40.1706 33.779 38.6001C33.7697 35.7334 33.7697 32.8573 33.7697 29.9718ZM37.3912 30.0001C37.3912 31.5233 37.3912 33.056 37.3912 34.5792C37.3912 34.7306 37.4098 34.8914 37.4472 35.0333C37.4938 35.2131 37.6245 35.2888 37.7925 35.2509C37.9139 35.2226 38.0259 35.1752 38.1379 35.1185C40.966 33.5669 43.7942 32.0248 46.6223 30.4637C46.809 30.3596 47.0423 30.1799 47.0703 30.0001C47.117 29.7352 46.8277 29.6217 46.613 29.5082C43.7568 27.9471 40.9007 26.3766 38.0445 24.8156C37.6432 24.598 37.4192 24.7209 37.3818 25.194C37.3725 25.2886 37.3818 25.3832 37.3818 25.4873C37.3912 26.9916 37.3912 28.4958 37.3912 30.0001Z" fill="black" style="fill:black;fill-opacity:1;"/>
<path d="M29.684 29.9717C29.684 32.8384 29.684 35.705 29.684 38.5811C29.684 39.5935 29.0867 40.3125 28.1439 40.4733C27.1079 40.6531 26.1092 39.83 26.0625 38.7514C26.0625 38.7041 26.0625 38.6568 26.0625 38.6095C26.0625 32.8573 26.0625 27.0956 26.0625 21.3434C26.0625 20.3689 26.6785 19.631 27.6026 19.4796C28.6386 19.3093 29.6187 20.104 29.6747 21.1731C29.6934 21.5988 29.684 22.0246 29.684 22.4503C29.684 24.948 29.684 27.4646 29.684 29.9717Z" fill="black" style="fill:black;fill-opacity:1;"/>
<path d="M47.4183 36.7319C48.506 36.7321 49.3841 37.6122 49.3842 38.7036C49.3842 39.7845 48.5167 40.665 47.4476 40.6753C46.3669 40.6854 45.4797 39.784 45.4896 38.6929C45.481 37.6115 46.3403 36.742 47.4174 36.7319H47.4183Z" fill="black" stroke="black" style="fill:black;fill-opacity:1;stroke:black;stroke-opacity:1;" stroke-width="0.253865"/>
</svg>
