<svg width="466" height="367" viewBox="0 0 466 367" fill="none" xmlns="http://www.w3.org/2000/svg">
<path d="M-56.2544 364.66C-51.553 349.844 -28.6968 320.625 25.1164 322.279C92.3829 324.346 99.9775 320.212 127.101 297.471C154.225 274.729 174.839 211.675 225.831 212.708C276.823 213.742 300.692 289.2 347.345 293.335C393.997 297.471 412.797 261.291 473.198 261.291C496.697 261.291 545.889 273.695 567.588 278.864" stroke="url(#paint0_linear_1253_3726)" style="" stroke-width="4.25542" stroke-linecap="round"/>
<circle cx="223.178" cy="212.696" r="8.08829" fill="white" stroke="#1301E2" style="fill:white;fill-opacity:1;stroke:#1301E2;stroke:color(display-p3 0.0745 0.0039 0.8863);stroke-opacity:1;" stroke-width="3.76344"/>
<path d="M-57.4629 295.789C-38.7632 305.984 6.65041 326.374 38.7071 326.374C78.7779 326.374 98.2408 276.673 139.457 276.673C180.672 276.673 200.839 330.197 231.751 330.197C262.662 330.197 279.132 295.789 340.955 295.789C402.779 295.789 418.807 356.96 455.444 356.96C492.08 356.96 498.949 302.161 568.787 302.161" stroke="url(#paint1_linear_1253_3726)" style="" stroke-width="4.25542" stroke-linecap="round"/>
<mask id="path-4-inside-1_1253_3726" fill="white">
<path fill-rule="evenodd" clip-rule="evenodd" d="M130.108 40.7607C119.063 40.7607 110.108 49.715 110.108 60.7607V154.263C110.108 165.309 119.063 174.263 130.108 174.263H213.55L220.302 185.957C221.58 188.171 224.775 188.171 226.053 185.957L232.804 174.263H316.246C327.292 174.263 336.246 165.309 336.246 154.263V60.7607C336.246 49.715 327.292 40.7607 316.246 40.7607H130.108Z"/>
</mask>
<path fill-rule="evenodd" clip-rule="evenodd" d="M130.108 40.7607C119.063 40.7607 110.108 49.715 110.108 60.7607V154.263C110.108 165.309 119.063 174.263 130.108 174.263H213.55L220.302 185.957C221.58 188.171 224.775 188.171 226.053 185.957L232.804 174.263H316.246C327.292 174.263 336.246 165.309 336.246 154.263V60.7607C336.246 49.715 327.292 40.7607 316.246 40.7607H130.108Z" fill="#0D0D0D" style="fill:#0D0D0D;fill:color(display-p3 0.0500 0.0500 0.0500);fill-opacity:1;"/>
<path d="M213.55 174.263L215.467 173.156L214.828 172.049H213.55V174.263ZM220.302 185.957L222.219 184.851V184.851L220.302 185.957ZM226.053 185.957L227.97 187.064L226.053 185.957ZM232.804 174.263V172.049H231.526L230.887 173.156L232.804 174.263ZM112.322 60.7607C112.322 50.9375 120.285 42.9743 130.108 42.9743V38.5472C117.84 38.5472 107.895 48.4925 107.895 60.7607H112.322ZM112.322 154.263V60.7607H107.895V154.263H112.322ZM130.108 172.049C120.285 172.049 112.322 164.086 112.322 154.263H107.895C107.895 166.531 117.84 176.477 130.108 176.477V172.049ZM213.55 172.049H130.108V176.477H213.55V172.049ZM222.219 184.851L215.467 173.156L211.633 175.37L218.385 187.064L222.219 184.851ZM224.136 184.851C223.71 185.588 222.645 185.588 222.219 184.851L218.385 187.064C220.515 190.753 225.84 190.753 227.97 187.064L224.136 184.851ZM230.887 173.156L224.136 184.851L227.97 187.064L234.721 175.37L230.887 173.156ZM316.246 172.049H232.804V176.477H316.246V172.049ZM334.033 154.263C334.033 164.086 326.069 172.049 316.246 172.049V176.477C328.514 176.477 338.46 166.531 338.46 154.263H334.033ZM334.033 60.7607V154.263H338.46V60.7607H334.033ZM316.246 42.9743C326.069 42.9743 334.033 50.9375 334.033 60.7607H338.46C338.46 48.4926 328.514 38.5472 316.246 38.5472V42.9743ZM130.108 42.9743H316.246V38.5472H130.108V42.9743Z" fill="white" style="fill:white;fill-opacity:1;" mask="url(#path-4-inside-1_1253_3726)"/>
<path d="M160.307 73.2632H167.989V80.7825H160.307V73.2632Z" fill="white" stroke="white" style="fill:white;fill-opacity:1;stroke:white;stroke-opacity:1;" stroke-width="1.10676"/>
<path fill-rule="evenodd" clip-rule="evenodd" d="M167.759 73.4888H160.537V80.5569H167.759V73.4888ZM160.307 73.2632V80.7825H167.989V73.2632H160.307Z" fill="white" stroke="white" style="fill:white;fill-opacity:1;stroke:white;stroke-opacity:1;" stroke-width="1.10676"/>
<path d="M160.307 103.667H167.989V111.187H160.307V103.667Z" fill="white" stroke="white" style="fill:white;fill-opacity:1;stroke:white;stroke-opacity:1;" stroke-width="1.10676"/>
<path fill-rule="evenodd" clip-rule="evenodd" d="M167.759 103.893H160.537V110.961H167.759V103.893ZM160.307 103.667V111.187H167.989V103.667H160.307Z" fill="white" stroke="white" style="fill:white;fill-opacity:1;stroke:white;stroke-opacity:1;" stroke-width="1.10676"/>
<path d="M152.786 73.2632H160.305V80.7825H152.786V73.2632Z" fill="white" stroke="white" style="fill:white;fill-opacity:1;stroke:white;stroke-opacity:1;" stroke-width="1.10676"/>
<path fill-rule="evenodd" clip-rule="evenodd" d="M160.079 73.4888H153.011V80.5569H160.079V73.4888ZM152.786 73.2632V80.7825H160.305V73.2632H152.786Z" fill="white" stroke="white" style="fill:white;fill-opacity:1;stroke:white;stroke-opacity:1;" stroke-width="1.10676"/>
<path d="M145.102 73.2632H152.785V80.7825H145.102V73.2632Z" fill="white" stroke="white" style="fill:white;fill-opacity:1;stroke:white;stroke-opacity:1;" stroke-width="1.10676"/>
<path fill-rule="evenodd" clip-rule="evenodd" d="M152.554 73.4888H145.333V80.5569H152.554V73.4888ZM145.102 73.2632V80.7825H152.785V73.2632H145.102Z" fill="white" stroke="white" style="fill:white;fill-opacity:1;stroke:white;stroke-opacity:1;" stroke-width="1.10676"/>
<path d="M152.786 73.2632H160.305V80.7825H152.786V73.2632Z" fill="white" stroke="white" style="fill:white;fill-opacity:1;stroke:white;stroke-opacity:1;" stroke-width="1.10676"/>
<path fill-rule="evenodd" clip-rule="evenodd" d="M160.079 73.4888H153.011V80.5569H160.079V73.4888ZM152.786 73.2632V80.7825H160.305V73.2632H152.786Z" fill="white" stroke="white" style="fill:white;fill-opacity:1;stroke:white;stroke-opacity:1;" stroke-width="1.10676"/>
<path d="M152.786 65.5806H160.305V73.2633H152.786V65.5806Z" fill="white" stroke="white" style="fill:white;fill-opacity:1;stroke:white;stroke-opacity:1;" stroke-width="1.10676"/>
<path fill-rule="evenodd" clip-rule="evenodd" d="M160.079 65.811H153.011V73.0329H160.079V65.811ZM152.786 65.5806V73.2633H160.305V65.5806H152.786Z" fill="white" stroke="white" style="fill:white;fill-opacity:1;stroke:white;stroke-opacity:1;" stroke-width="1.10676"/>
<path d="M152.786 80.7822H160.305V88.465H152.786V80.7822Z" fill="white" stroke="white" style="fill:white;fill-opacity:1;stroke:white;stroke-opacity:1;" stroke-width="1.10676"/>
<path fill-rule="evenodd" clip-rule="evenodd" d="M160.079 81.0127H153.011V88.2345H160.079V81.0127ZM152.786 80.7822V88.465H160.305V80.7822H152.786Z" fill="white" stroke="white" style="fill:white;fill-opacity:1;stroke:white;stroke-opacity:1;" stroke-width="1.10676"/>
<path d="M152.786 88.4658H160.305V95.9851H152.786V88.4658Z" fill="white" stroke="white" style="fill:white;fill-opacity:1;stroke:white;stroke-opacity:1;" stroke-width="1.10676"/>
<path fill-rule="evenodd" clip-rule="evenodd" d="M160.079 88.6914H153.011V95.7596H160.079V88.6914ZM152.786 88.4658V95.9851H160.305V88.4658H152.786Z" fill="white" stroke="white" style="fill:white;fill-opacity:1;stroke:white;stroke-opacity:1;" stroke-width="1.10676"/>
<path d="M152.786 95.9849H160.305V103.668H152.786V95.9849Z" fill="white" stroke="white" style="fill:white;fill-opacity:1;stroke:white;stroke-opacity:1;" stroke-width="1.10676"/>
<path fill-rule="evenodd" clip-rule="evenodd" d="M160.079 96.2153H153.011V103.437H160.079V96.2153ZM152.786 95.9849V103.668H160.305V95.9849H152.786Z" fill="white" stroke="white" style="fill:white;fill-opacity:1;stroke:white;stroke-opacity:1;" stroke-width="1.10676"/>
<path d="M152.786 103.667H160.305V111.187H152.786V103.667Z" fill="white" stroke="white" style="fill:white;fill-opacity:1;stroke:white;stroke-opacity:1;" stroke-width="1.10676"/>
<path fill-rule="evenodd" clip-rule="evenodd" d="M160.079 103.893H153.011V110.961H160.079V103.893ZM152.786 103.667V111.187H160.305V103.667H152.786Z" fill="white" stroke="white" style="fill:white;fill-opacity:1;stroke:white;stroke-opacity:1;" stroke-width="1.10676"/>
<path d="M152.786 111.187H160.305V118.87H152.786V111.187Z" fill="white" stroke="white" style="fill:white;fill-opacity:1;stroke:white;stroke-opacity:1;" stroke-width="1.10676"/>
<path fill-rule="evenodd" clip-rule="evenodd" d="M160.079 111.417H153.011V118.639H160.079V111.417ZM152.786 111.187V118.87H160.305V111.187H152.786Z" fill="white" stroke="white" style="fill:white;fill-opacity:1;stroke:white;stroke-opacity:1;" stroke-width="1.10676"/>
<path d="M152.786 118.869H160.305V126.552H152.786V118.869Z" fill="white" stroke="white" style="fill:white;fill-opacity:1;stroke:white;stroke-opacity:1;" stroke-width="1.10676"/>
<path fill-rule="evenodd" clip-rule="evenodd" d="M160.079 119.1H153.011V126.321H160.079V119.1ZM152.786 118.869V126.552H160.305V118.869H152.786Z" fill="white" stroke="white" style="fill:white;fill-opacity:1;stroke:white;stroke-opacity:1;" stroke-width="1.10676"/>
<path d="M152.786 126.552H160.305V134.072H152.786V126.552Z" fill="white" stroke="white" style="fill:white;fill-opacity:1;stroke:white;stroke-opacity:1;" stroke-width="1.10676"/>
<path fill-rule="evenodd" clip-rule="evenodd" d="M160.079 126.778H153.011V133.846H160.079V126.778ZM152.786 126.552V134.072H160.305V126.552H152.786Z" fill="white" stroke="white" style="fill:white;fill-opacity:1;stroke:white;stroke-opacity:1;" stroke-width="1.10676"/>
<path d="M152.786 134.072H160.305V141.755H152.786V134.072Z" fill="white" stroke="white" style="fill:white;fill-opacity:1;stroke:white;stroke-opacity:1;" stroke-width="1.10676"/>
<path fill-rule="evenodd" clip-rule="evenodd" d="M160.079 134.302H153.011V141.524H160.079V134.302ZM152.786 134.072V141.755H160.305V134.072H152.786Z" fill="white" stroke="white" style="fill:white;fill-opacity:1;stroke:white;stroke-opacity:1;" stroke-width="1.10676"/>
<path d="M152.786 141.754H160.305V149.274H152.786V141.754Z" fill="white" stroke="white" style="fill:white;fill-opacity:1;stroke:white;stroke-opacity:1;" stroke-width="1.10676"/>
<path fill-rule="evenodd" clip-rule="evenodd" d="M160.079 141.98H153.011V149.048H160.079V141.98ZM152.786 141.754V149.274H160.305V141.754H152.786Z" fill="white" stroke="white" style="fill:white;fill-opacity:1;stroke:white;stroke-opacity:1;" stroke-width="1.10676"/>
<path d="M137.585 80.7822H145.104V88.465H137.585V80.7822Z" fill="white" stroke="white" style="fill:white;fill-opacity:1;stroke:white;stroke-opacity:1;" stroke-width="1.10676"/>
<path fill-rule="evenodd" clip-rule="evenodd" d="M144.879 81.0127H137.811V88.2345H144.879V81.0127ZM137.585 80.7822V88.465H145.104V80.7822H137.585Z" fill="white" stroke="white" style="fill:white;fill-opacity:1;stroke:white;stroke-opacity:1;" stroke-width="1.10676"/>
<path d="M167.987 126.552H175.506V134.072H167.987V126.552Z" fill="white" stroke="white" style="fill:white;fill-opacity:1;stroke:white;stroke-opacity:1;" stroke-width="1.10676"/>
<path fill-rule="evenodd" clip-rule="evenodd" d="M175.281 126.778H168.212V133.846H175.281V126.778ZM167.987 126.552V134.072H175.506V126.552H167.987Z" fill="white" stroke="white" style="fill:white;fill-opacity:1;stroke:white;stroke-opacity:1;" stroke-width="1.10676"/>
<path d="M160.307 134.072H167.989V141.755H160.307V134.072Z" fill="white" stroke="white" style="fill:white;fill-opacity:1;stroke:white;stroke-opacity:1;" stroke-width="1.10676"/>
<path fill-rule="evenodd" clip-rule="evenodd" d="M167.759 134.302H160.537V141.524H167.759V134.302ZM160.307 134.072V141.755H167.989V134.072H160.307Z" fill="white" stroke="white" style="fill:white;fill-opacity:1;stroke:white;stroke-opacity:1;" stroke-width="1.10676"/>
<path d="M145.102 134.072H152.785V141.755H145.102V134.072Z" fill="white" stroke="white" style="fill:white;fill-opacity:1;stroke:white;stroke-opacity:1;" stroke-width="1.10676"/>
<path fill-rule="evenodd" clip-rule="evenodd" d="M152.554 134.302H145.333V141.524H152.554V134.302ZM145.102 134.072V141.755H152.785V134.072H145.102Z" fill="white" stroke="white" style="fill:white;fill-opacity:1;stroke:white;stroke-opacity:1;" stroke-width="1.10676"/>
<path d="M137.585 134.072H145.104V141.755H137.585V134.072Z" fill="white" stroke="white" style="fill:white;fill-opacity:1;stroke:white;stroke-opacity:1;" stroke-width="1.10676"/>
<path fill-rule="evenodd" clip-rule="evenodd" d="M144.879 134.302H137.811V141.524H144.879V134.302ZM137.585 134.072V141.755H145.104V134.072H137.585Z" fill="white" stroke="white" style="fill:white;fill-opacity:1;stroke:white;stroke-opacity:1;" stroke-width="1.10676"/>
<path d="M129.901 88.4658H137.584V95.9851H129.901V88.4658Z" fill="white" stroke="white" style="fill:white;fill-opacity:1;stroke:white;stroke-opacity:1;" stroke-width="1.10676"/>
<path fill-rule="evenodd" clip-rule="evenodd" d="M137.354 88.6914H130.132V95.7596H137.354V88.6914ZM129.901 88.4658V95.9851H137.584V88.4658H129.901Z" fill="white" stroke="white" style="fill:white;fill-opacity:1;stroke:white;stroke-opacity:1;" stroke-width="1.10676"/>
<path d="M137.585 95.9849H145.104V103.668H137.585V95.9849Z" fill="white" stroke="white" style="fill:white;fill-opacity:1;stroke:white;stroke-opacity:1;" stroke-width="1.10676"/>
<path fill-rule="evenodd" clip-rule="evenodd" d="M144.879 96.2153H137.811V103.437H144.879V96.2153ZM137.585 95.9849V103.668H145.104V95.9849H137.585Z" fill="white" stroke="white" style="fill:white;fill-opacity:1;stroke:white;stroke-opacity:1;" stroke-width="1.10676"/>
<path d="M145.102 103.667H152.785V111.187H145.102V103.667Z" fill="white" stroke="white" style="fill:white;fill-opacity:1;stroke:white;stroke-opacity:1;" stroke-width="1.10676"/>
<path fill-rule="evenodd" clip-rule="evenodd" d="M152.554 103.893H145.333V110.961H152.554V103.893ZM145.102 103.667V111.187H152.785V103.667H145.102Z" fill="white" stroke="white" style="fill:white;fill-opacity:1;stroke:white;stroke-opacity:1;" stroke-width="1.10676"/>
<path d="M175.508 118.869H183.191V126.552H175.508V118.869Z" fill="white" stroke="white" style="fill:white;fill-opacity:1;stroke:white;stroke-opacity:1;" stroke-width="1.10676"/>
<path fill-rule="evenodd" clip-rule="evenodd" d="M182.96 119.1H175.738V126.321H182.96V119.1ZM175.508 118.869V126.552H183.191V118.869H175.508Z" fill="white" stroke="white" style="fill:white;fill-opacity:1;stroke:white;stroke-opacity:1;" stroke-width="1.10676"/>
<path d="M167.987 73.2632H175.506V80.7825H167.987V73.2632Z" fill="white" stroke="white" style="fill:white;fill-opacity:1;stroke:white;stroke-opacity:1;" stroke-width="1.10676"/>
<path fill-rule="evenodd" clip-rule="evenodd" d="M175.281 73.4888H168.212V80.5569H175.281V73.4888ZM167.987 73.2632V80.7825H175.506V73.2632H167.987Z" fill="white" stroke="white" style="fill:white;fill-opacity:1;stroke:white;stroke-opacity:1;" stroke-width="1.10676"/>
<path d="M167.987 111.187H175.506V118.87H167.987V111.187Z" fill="white" stroke="white" style="fill:white;fill-opacity:1;stroke:white;stroke-opacity:1;" stroke-width="1.10676"/>
<path fill-rule="evenodd" clip-rule="evenodd" d="M175.281 111.417H168.212V118.639H175.281V111.417ZM167.987 111.187V118.87H175.506V111.187H167.987Z" fill="white" stroke="white" style="fill:white;fill-opacity:1;stroke:white;stroke-opacity:1;" stroke-width="1.10676"/>
<path d="M221.243 89.8464V95.1205H212.505V103.859H207.231V95.1205H198.493V89.8464H207.231V81.1081H212.505V89.8464H221.243ZM241.347 89.1743C243.967 89.7947 246.087 91.0184 247.707 92.8454C249.361 94.6379 250.189 96.8957 250.189 99.6189C250.189 103.238 248.965 106.082 246.518 108.15C244.07 110.219 241.071 111.253 237.521 111.253C234.763 111.253 232.281 110.615 230.075 109.34C227.903 108.064 226.335 106.203 225.37 103.755L230.437 100.808C231.506 103.91 233.867 105.462 237.521 105.462C239.589 105.462 241.226 104.945 242.433 103.91C243.639 102.842 244.243 101.411 244.243 99.6189C244.243 97.8264 243.639 96.4131 242.433 95.379C241.226 94.3449 239.589 93.8278 237.521 93.8278H236.176L233.798 90.2601L241.605 79.9706H226.456V74.3863H248.689V79.4535L241.347 89.1743ZM278.732 106.134C276.251 109.546 272.769 111.253 268.288 111.253C263.807 111.253 260.308 109.546 257.792 106.134C255.31 102.721 254.069 98.1711 254.069 92.4835C254.069 86.7958 255.31 82.2457 257.792 78.8331C260.308 75.4205 263.807 73.7142 268.288 73.7142C272.769 73.7142 276.251 75.4205 278.732 78.8331C281.249 82.2457 282.507 86.7958 282.507 92.4835C282.507 98.1711 281.249 102.721 278.732 106.134ZM268.288 105.462C270.977 105.462 273.028 104.341 274.441 102.101C275.854 99.8602 276.561 96.6544 276.561 92.4835C276.561 88.3125 275.854 85.1067 274.441 82.8661C273.028 80.6255 270.977 79.5052 268.288 79.5052C265.634 79.5052 263.583 80.6255 262.135 82.8661C260.722 85.1067 260.015 88.3125 260.015 92.4835C260.015 96.6544 260.722 99.8602 262.135 102.101C263.583 104.341 265.634 105.462 268.288 105.462ZM311.301 106.134C308.819 109.546 305.338 111.253 300.857 111.253C296.375 111.253 292.877 109.546 290.36 106.134C287.878 102.721 286.637 98.1711 286.637 92.4835C286.637 86.7958 287.878 82.2457 290.36 78.8331C292.877 75.4205 296.375 73.7142 300.857 73.7142C305.338 73.7142 308.819 75.4205 311.301 78.8331C313.818 82.2457 315.076 86.7958 315.076 92.4835C315.076 98.1711 313.818 102.721 311.301 106.134ZM300.857 105.462C303.545 105.462 305.596 104.341 307.01 102.101C308.423 99.8602 309.13 96.6544 309.13 92.4835C309.13 88.3125 308.423 85.1067 307.01 82.8661C305.596 80.6255 303.545 79.5052 300.857 79.5052C298.202 79.5052 296.151 80.6255 294.704 82.8661C293.29 85.1067 292.584 88.3125 292.584 92.4835C292.584 96.6544 293.29 99.8602 294.704 102.101C296.151 104.341 298.202 105.462 300.857 105.462Z" fill="white" style="fill:white;fill-opacity:1;"/>
<path d="M203.423 125.607V126.594H200.209V136.072H199.162V126.594H195.948V125.607H203.423ZM209.69 135.13C208.933 135.878 208.006 136.252 206.91 136.252C205.813 136.252 204.881 135.878 204.114 135.13C203.356 134.373 202.978 133.441 202.978 132.335C202.978 131.228 203.356 130.301 204.114 129.554C204.881 128.796 205.813 128.418 206.91 128.418C208.006 128.418 208.933 128.796 209.69 129.554C210.458 130.301 210.842 131.228 210.842 132.335C210.842 133.441 210.458 134.373 209.69 135.13ZM204.817 134.443C205.385 135.011 206.082 135.295 206.91 135.295C207.737 135.295 208.435 135.011 209.003 134.443C209.571 133.865 209.855 133.162 209.855 132.335C209.855 131.507 209.571 130.81 209.003 130.242C208.435 129.663 207.737 129.374 206.91 129.374C206.082 129.374 205.385 129.663 204.817 130.242C204.248 130.81 203.964 131.507 203.964 132.335C203.964 133.162 204.248 133.865 204.817 134.443ZM216.309 129.554H214.156V134.084C214.156 134.492 214.236 134.787 214.395 134.966C214.555 135.135 214.794 135.225 215.113 135.235C215.432 135.235 215.83 135.225 216.309 135.205V136.072C215.262 136.232 214.475 136.157 213.947 135.848C213.428 135.539 213.169 134.951 213.169 134.084V129.554H211.599V128.597H213.169V126.803L214.156 126.504V128.597H216.309V129.554ZM223.93 128.597H224.916V136.072H223.93V134.607C223.242 135.703 222.235 136.252 220.91 136.252C219.843 136.252 218.931 135.873 218.174 135.115C217.426 134.358 217.052 133.431 217.052 132.335C217.052 131.238 217.426 130.311 218.174 129.554C218.931 128.796 219.843 128.418 220.91 128.418C222.235 128.418 223.242 128.966 223.93 130.062V128.597ZM218.891 134.443C219.459 135.011 220.157 135.295 220.984 135.295C221.812 135.295 222.509 135.011 223.077 134.443C223.646 133.865 223.93 133.162 223.93 132.335C223.93 131.507 223.646 130.81 223.077 130.242C222.509 129.663 221.812 129.374 220.984 129.374C220.157 129.374 219.459 129.663 218.891 130.242C218.323 130.81 218.039 131.507 218.039 132.335C218.039 133.162 218.323 133.865 218.891 134.443ZM227.006 136.072V125.158H227.992V136.072H227.006ZM233.973 125.607H235.02V136.072H233.973V125.607ZM240.768 128.418C241.675 128.418 242.388 128.697 242.906 129.255C243.434 129.803 243.698 130.546 243.698 131.482V136.072H242.712V131.482C242.712 130.815 242.532 130.296 242.173 129.928C241.824 129.559 241.326 129.374 240.678 129.374C239.961 129.374 239.378 129.604 238.929 130.062C238.481 130.511 238.256 131.208 238.256 132.155V136.072H237.27V128.597H238.256V129.763C238.814 128.866 239.652 128.418 240.768 128.418ZM249.09 136.252C247.963 136.252 247.027 135.878 246.279 135.13C245.531 134.373 245.158 133.441 245.158 132.335C245.158 131.228 245.531 130.301 246.279 129.554C247.027 128.796 247.963 128.418 249.09 128.418C249.827 128.418 250.49 128.597 251.078 128.956C251.666 129.305 252.095 129.778 252.364 130.376L251.557 130.84C251.357 130.391 251.033 130.037 250.585 129.778C250.146 129.509 249.648 129.374 249.09 129.374C248.262 129.374 247.565 129.663 246.997 130.242C246.429 130.81 246.144 131.507 246.144 132.335C246.144 133.162 246.429 133.865 246.997 134.443C247.565 135.011 248.262 135.295 249.09 135.295C249.648 135.295 250.146 135.165 250.585 134.906C251.023 134.637 251.367 134.278 251.616 133.83L252.439 134.308C252.13 134.906 251.676 135.38 251.078 135.728C250.48 136.077 249.817 136.252 249.09 136.252ZM260.047 135.13C259.289 135.878 258.362 136.252 257.266 136.252C256.169 136.252 255.238 135.878 254.47 135.13C253.713 134.373 253.334 133.441 253.334 132.335C253.334 131.228 253.713 130.301 254.47 129.554C255.238 128.796 256.169 128.418 257.266 128.418C258.362 128.418 259.289 128.796 260.047 129.554C260.814 130.301 261.198 131.228 261.198 132.335C261.198 133.441 260.814 134.373 260.047 135.13ZM255.173 134.443C255.741 135.011 256.439 135.295 257.266 135.295C258.093 135.295 258.791 135.011 259.359 134.443C259.927 133.865 260.211 133.162 260.211 132.335C260.211 131.507 259.927 130.81 259.359 130.242C258.791 129.663 258.093 129.374 257.266 129.374C256.439 129.374 255.741 129.663 255.173 130.242C254.605 130.81 254.321 131.507 254.321 132.335C254.321 133.162 254.605 133.865 255.173 134.443ZM270.818 128.418C271.655 128.418 272.328 128.687 272.836 129.225C273.354 129.763 273.614 130.491 273.614 131.408V136.072H272.627V131.408C272.627 130.76 272.457 130.261 272.119 129.913C271.79 129.554 271.351 129.374 270.803 129.374C270.185 129.374 269.682 129.584 269.293 130.002C268.914 130.411 268.725 131.054 268.725 131.931V136.072H267.738V131.408C267.738 130.75 267.579 130.246 267.26 129.898C266.951 129.549 266.527 129.374 265.989 129.374C265.391 129.374 264.882 129.584 264.464 130.002C264.045 130.421 263.836 131.064 263.836 131.931V136.072H262.849V128.597H263.836V129.688C264.374 128.841 265.137 128.418 266.123 128.418C267.2 128.418 267.957 128.871 268.396 129.778C268.934 128.871 269.741 128.418 270.818 128.418ZM278.976 128.418C280.082 128.418 280.974 128.811 281.652 129.599C282.34 130.376 282.683 131.298 282.683 132.365C282.683 132.474 282.674 132.629 282.654 132.828H276.09C276.19 133.585 276.509 134.188 277.047 134.637C277.595 135.076 278.268 135.295 279.065 135.295C279.634 135.295 280.122 135.18 280.531 134.951C280.949 134.712 281.263 134.403 281.472 134.024L282.34 134.532C282.011 135.061 281.562 135.479 280.994 135.788C280.426 136.097 279.778 136.252 279.05 136.252C277.874 136.252 276.918 135.883 276.18 135.145C275.442 134.408 275.074 133.471 275.074 132.335C275.074 131.218 275.437 130.286 276.165 129.539C276.893 128.791 277.83 128.418 278.976 128.418ZM278.976 129.374C278.198 129.374 277.545 129.609 277.017 130.077C276.499 130.536 276.19 131.134 276.09 131.871H281.667C281.567 131.084 281.263 130.471 280.755 130.032C280.247 129.594 279.653 129.374 278.976 129.374Z" fill="white" style="fill:white;fill-opacity:1;"/>
<defs>
<linearGradient id="paint0_linear_1253_3726" x1="-56.2544" y1="288.678" x2="567.588" y2="288.678" gradientUnits="userSpaceOnUse">
<stop style="stop-color:black;stop-opacity:1;"/>
<stop offset="0.530021" stop-color="#1400FF" style="stop-color:#1400FF;stop-color:color(display-p3 0.0800 0.0000 1.0000);stop-opacity:1;"/>
<stop offset="1" style="stop-color:black;stop-opacity:1;"/>
</linearGradient>
<linearGradient id="paint1_linear_1253_3726" x1="27.7186" y1="331.32" x2="452.923" y2="348.981" gradientUnits="userSpaceOnUse">
<stop style="stop-color:black;stop-opacity:1;"/>
<stop offset="0.510021" stop-color="white" style="stop-color:white;stop-opacity:1;"/>
<stop offset="1" style="stop-color:black;stop-opacity:1;"/>
</linearGradient>
</defs>
</svg>
