<svg width="322" height="322" viewBox="0 0 322 322" fill="none" xmlns="http://www.w3.org/2000/svg">
<path fill-rule="evenodd" clip-rule="evenodd" d="M64.4513 257.631V321.996L0.0865645 321.996L0.0865631 257.631H64.4513ZM193.181 257.632V321.996L128.816 321.996V257.632H128.809V257.631H64.4545V193.267V193.266V128.902V128.902V64.5378H128.809V0.173553H193.174V64.5382V128.902V128.903V193.267H128.819V193.267H193.174V257.631H193.177L193.177 193.267H257.542V257.632H193.181ZM321.91 193.268V128.903L257.545 128.903V193.268H321.91ZM257.542 128.902V64.5383H193.177V128.902L193.177 128.903V193.267H257.542V128.903V128.902ZM64.4513 64.5382V0.173553H0.0865021L0.0865035 64.5382H64.4513ZM321.91 257.631V321.996L257.545 321.996V257.631H321.91ZM321.91 64.5382V0.173553H257.545V64.5382H321.91ZM64.4513 128.902V193.266H0.0865645L0.0865631 128.902H64.4513Z" fill="black" style="fill:black;fill-opacity:1;"/>
<path d="M154.412 145.424L144.919 161.386V172.219H141.359V161.348L131.904 145.424H135.885L143.158 157.979L150.431 145.424H154.412ZM155.748 164.18C156.08 165.89 156.858 167.217 158.083 168.161C159.334 169.105 160.865 169.578 162.677 169.578C165.203 169.578 167.04 168.646 168.189 166.783L171.021 168.391C169.158 171.275 166.351 172.716 162.6 172.716C159.563 172.716 157.088 171.772 155.174 169.884C153.286 167.97 152.341 165.558 152.341 162.649C152.341 159.766 153.273 157.367 155.136 155.453C156.999 153.539 159.41 152.582 162.37 152.582C165.177 152.582 167.461 153.577 169.222 155.568C171.009 157.533 171.902 159.906 171.902 162.687C171.902 163.172 171.863 163.67 171.787 164.18H155.748ZM162.37 155.721C160.584 155.721 159.104 156.231 157.93 157.252C156.756 158.247 156.029 159.587 155.748 161.271H168.533C168.252 159.459 167.538 158.081 166.39 157.137C165.241 156.193 163.902 155.721 162.37 155.721ZM177.853 158.247C177.853 158.987 178.223 159.587 178.963 160.046C179.703 160.48 180.596 160.837 181.643 161.118C182.689 161.373 183.735 161.679 184.781 162.037C185.828 162.368 186.721 162.955 187.461 163.798C188.201 164.614 188.571 165.673 188.571 166.975C188.571 168.71 187.895 170.101 186.542 171.147C185.215 172.193 183.505 172.716 181.413 172.716C179.55 172.716 177.955 172.308 176.628 171.491C175.301 170.675 174.357 169.59 173.796 168.238L176.666 166.592C176.973 167.511 177.547 168.238 178.389 168.774C179.231 169.31 180.239 169.578 181.413 169.578C182.51 169.578 183.416 169.373 184.131 168.965C184.845 168.531 185.202 167.868 185.202 166.975C185.202 166.235 184.832 165.648 184.092 165.214C183.352 164.754 182.459 164.397 181.413 164.142C180.367 163.861 179.32 163.542 178.274 163.185C177.228 162.828 176.335 162.241 175.595 161.424C174.855 160.608 174.485 159.561 174.485 158.285C174.485 156.627 175.123 155.261 176.398 154.19C177.7 153.118 179.32 152.582 181.26 152.582C182.816 152.582 184.194 152.939 185.394 153.654C186.619 154.343 187.537 155.312 188.15 156.563L185.356 158.132C184.667 156.499 183.301 155.683 181.26 155.683C180.316 155.683 179.512 155.912 178.848 156.372C178.185 156.805 177.853 157.431 177.853 158.247Z" fill="white" style="fill:white;fill-opacity:1;"/>
</svg>
